<svg width="18" height="22" viewBox="0 0 18 22" fill="none" xmlns="http://www.w3.org/2000/svg">
<path fill-rule="evenodd" clip-rule="evenodd" d="M0.278809 2.27806V19.7223C0.278809 20.686 1.05948 21.4666 2.02327 21.4666H16.6327C17.2344 21.4666 17.7231 20.9782 17.7231 20.3765C17.7231 19.7745 17.2344 19.2861 16.6327 19.2861H3.33156C2.85175 19.2861 2.4594 18.8935 2.4594 18.4138C2.4594 17.9345 2.8518 17.5418 3.33156 17.5418H15.9785C16.9422 17.5418 17.7231 16.761 17.7231 15.7972V2.27806C17.7231 1.31436 16.9422 0.533739 15.9785 0.533739H9.87314V8.37934C9.87314 8.49262 9.82971 8.60585 9.74662 8.69316C9.57679 8.86308 9.29724 8.86308 9.12732 8.69316C9.0139 8.57523 7.25647 7.11444 7.25647 7.11444C7.25647 7.11444 5.4991 8.57523 5.38558 8.69316C5.21566 8.86308 4.93634 8.86308 4.76633 8.69316C4.68353 8.60585 4.63985 8.49262 4.63985 8.37934V0.533691H2.02327C1.05943 0.533691 0.278809 1.31436 0.278809 2.27806Z" fill="#42526E"/>
</svg>
