<svg width="27" height="20" viewBox="0 0 27 20" fill="none" xmlns="http://www.w3.org/2000/svg">
<path d="M18.4091 8.57143C20.4464 8.57143 22.0786 6.65714 22.0786 4.28571C22.0786 1.91429 20.4464 0 18.4091 0C16.3718 0 14.7273 1.91429 14.7273 4.28571C14.7273 6.65714 16.3718 8.57143 18.4091 8.57143ZM8.59091 8.57143C10.6282 8.57143 12.2605 6.65714 12.2605 4.28571C12.2605 1.91429 10.6282 0 8.59091 0C6.55364 0 4.90909 1.91429 4.90909 4.28571C4.90909 6.65714 6.55364 8.57143 8.59091 8.57143ZM8.59091 11.4286C5.73136 11.4286 0 13.1 0 16.4286V20H17.1818V16.4286C17.1818 13.1 11.4505 11.4286 8.59091 11.4286ZM18.4091 11.4286C18.0532 11.4286 17.6482 11.4571 17.2186 11.5C18.6423 12.7 19.6364 14.3143 19.6364 16.4286V20H27V16.4286C27 13.1 21.2686 11.4286 18.4091 11.4286Z" fill="#07449E"/>
</svg>
