<svg width="21" height="20" viewBox="0 0 21 20" fill="none" xmlns="http://www.w3.org/2000/svg">
<path d="M17.9373 10.936C17.9748 10.636 17.9998 10.324 17.9998 10C17.9998 9.67602 17.9748 9.36402 17.9248 9.06402L20.0373 7.48002C20.2248 7.33602 20.2748 7.07202 20.1623 6.86802L18.1623 3.54402C18.0373 3.32802 17.7748 3.25602 17.5498 3.32802L15.0623 4.28802C14.5373 3.90402 13.9873 3.59202 13.3748 3.35202L12.9998 0.808024C12.9623 0.568024 12.7498 0.400024 12.4998 0.400024H8.49983C8.24983 0.400024 8.04983 0.568024 8.01233 0.808024L7.63733 3.35202C7.02483 3.59202 6.46233 3.91602 5.94983 4.28802L3.46233 3.32802C3.23733 3.24402 2.97483 3.32802 2.84983 3.54402L0.849826 6.86802C0.724826 7.08402 0.774826 7.33602 0.974826 7.48002L3.08733 9.06402C3.03733 9.36402 2.99983 9.68802 2.99983 10C2.99983 10.312 3.02483 10.636 3.07483 10.936L0.962326 12.52C0.774826 12.664 0.724826 12.928 0.837326 13.132L2.83733 16.456C2.96233 16.672 3.22483 16.744 3.44983 16.672L5.93733 15.712C6.46233 16.096 7.01233 16.408 7.62483 16.648L7.99983 19.192C8.04983 19.432 8.24983 19.6 8.49983 19.6H12.4998C12.7498 19.6 12.9623 19.432 12.9873 19.192L13.3623 16.648C13.9748 16.408 14.5373 16.084 15.0498 15.712L17.5373 16.672C17.7623 16.756 18.0248 16.672 18.1498 16.456L20.1498 13.132C20.2748 12.916 20.2248 12.664 20.0248 12.52L17.9373 10.936ZM10.4998 13.6C8.43733 13.6 6.74983 11.98 6.74983 10C6.74983 8.02002 8.43733 6.40002 10.4998 6.40002C12.5623 6.40002 14.2498 8.02002 14.2498 10C14.2498 11.98 12.5623 13.6 10.4998 13.6Z" fill="#07449E"/>
</svg>
