<svg width="116" height="116" viewBox="0 0 116 116" fill="none" xmlns="http://www.w3.org/2000/svg">
<path d="M96.5 0.499878H19.5C9 0.499878 0.5 8.99988 0.5 19.4999V96.4999C0.5 107 9 115.5 19.5 115.5H96.5C107 115.5 115.5 107 115.5 96.4999V19.4999C115.5 8.99988 107 0.499878 96.5 0.499878ZM81.5 27.9999L76.5 42.4999C76.5 42.9999 76 43.4999 75 43.9999C74.5 44.4999 73.5 43.9999 73 43.9999C73 43.9999 69 41.9999 64.5 41.9999C61 41.9999 59 43.4999 59 45.4999C59 46.9999 61.5 48.4999 64 50.4999C69 54.4999 76.5 59.4999 76.5 69.9999C76.5 83.4999 68 92.4999 56 92.4999C42.5 92.4999 35.5 83.9999 35 83.9999C34.5 83.4999 34.5 82.4999 34.5 81.9999L38 70.9999C38 69.9999 39 69.4999 39.5 69.4999C40.5 69.4999 41 69.4999 42 69.9999C43.5 71.4999 49 74.9999 52.5 74.9999C55 74.9999 55 72.4999 55 72.4999C55 69.9999 53 68.4999 50 65.9999C46 62.4999 40.5 58.4999 40.5 49.4999C40.5 36.9999 49.5 23.4999 69 23.4999C76 23.4999 80 25.4999 80 25.4999C81.5 25.9999 82 26.9999 81.5 27.9999Z" fill="black" fill-opacity="0.75"/>
</svg>
